<?xml version="1.0" encoding="UTF-8" standalone="no"?>
<!-- Created with Inkscape (http://www.inkscape.org/) -->

<svg
   width="119.84198mm"
   height="119.84865mm"
   viewBox="0 0 119.84198 119.84865"
   version="1.1"
   id="svg1"
   xml:space="preserve"
   xmlns:inkscape="http://www.inkscape.org/namespaces/inkscape"
   xmlns:sodipodi="http://sodipodi.sourceforge.net/DTD/sodipodi-0.dtd"
   xmlns="http://www.w3.org/2000/svg"
   xmlns:svg="http://www.w3.org/2000/svg"><sodipodi:namedview
     id="namedview1"
     pagecolor="#ffffff"
     bordercolor="#000000"
     borderopacity="0.25"
     inkscape:showpageshadow="2"
     inkscape:pageopacity="0.0"
     inkscape:pagecheckerboard="0"
     inkscape:deskcolor="#d1d1d1"
     inkscape:document-units="mm" /><defs
     id="defs1" /><g
     inkscape:label="Layer 1"
     inkscape:groupmode="layer"
     id="layer1"
     transform="translate(-45.055364,-88.561422)"><g
       id="g8"
       transform="translate(-0.00278208,0.00428934)"
       inkscape:label="dozar-logo"><path
         style="fill:#e63349"
         d="m 103.20684,208.39833 c -3.1594,-0.12554 -5.704362,-0.37855 -8.322994,-0.82744 -7.144234,-1.22466 -13.895144,-3.68413 -20.149359,-7.34074 -3.588135,-2.09786 -6.971757,-4.59269 -10.167924,-7.49708 -0.758224,-0.68901 -2.611337,-2.5232 -3.362949,-3.32862 C 53.825167,181.4978 48.76996,171.90136 46.45534,161.4074 c -1.772182,-8.03467 -1.859924,-16.50006 -0.255115,-24.61372 2.615787,-13.225 9.692493,-25.24433 20.023001,-34.00777 11.960757,-10.146383 27.263014,-15.165729 42.938264,-14.084326 13.74243,0.948061 26.62215,6.557345 36.74296,16.002026 0.80542,0.75162 2.63961,2.60473 3.32862,3.36295 3.29815,3.62949 5.97852,7.37368 8.33217,11.63918 0.79801,1.44622 1.83274,3.56952 2.52365,5.17862 2.61619,6.09294 4.20795,12.65763 4.67606,19.28498 0.11534,1.63289 0.13523,2.26752 0.13518,4.31374 -5e-5,2.40316 -0.0553,3.65632 -0.25359,5.75166 -1.28655,13.59544 -7.23755,26.37806 -16.85379,36.20162 l -0.13248,0.13534 0.15913,-0.23684 c 0.38504,-0.57304 0.58185,-1.17697 0.61299,-1.88101 0.0233,-0.52569 -0.0238,-0.87753 -0.18056,-1.35007 -0.13359,-0.40269 -0.28436,-0.69574 -0.52222,-1.01499 -0.25569,-0.34319 -55.691945,-55.75198 -55.954278,-55.92655 -1.833441,-1.22012 -4.283457,-0.6255 -5.313639,1.28962 -0.645572,1.20012 -0.568597,2.6677 0.200544,3.82347 0.174577,0.26233 55.583363,55.69859 55.926553,55.95428 0.31925,0.23786 0.6123,0.38863 1.01499,0.52222 0.47254,0.15676 0.82438,0.20382 1.35007,0.18056 0.70404,-0.0311 1.30797,-0.22795 1.88101,-0.61299 l 0.23684,-0.15913 -0.13534,0.13248 c -8.02306,7.85374 -18.12596,13.33343 -28.97821,15.71742 -3.32558,0.73055 -6.37984,1.13888 -10.04849,1.34339 -0.61054,0.034 -4.12988,0.0675 -4.70282,0.0448 z m -6.868162,-24.00229 c 0.614376,-0.0795 1.297988,-0.35339 1.761755,-0.70592 0.659709,-0.50148 1.155226,-1.24949 1.355256,-2.04584 0.08902,-0.35439 0.120717,-1.06389 0.06466,-1.44725 -0.08898,-0.60853 -0.373867,-1.26075 -0.759002,-1.73765 -0.335669,-0.41565 -33.217718,-33.26928 -33.481632,-33.4527 -0.467266,-0.32474 -1.046102,-0.55683 -1.585401,-0.63569 -0.383361,-0.056 -1.092864,-0.0243 -1.447254,0.0647 -0.796345,0.20003 -1.544355,0.69554 -2.045833,1.35525 -0.220168,0.28964 -0.516423,0.89543 -0.605112,1.23734 -0.292391,1.12724 -0.06611,2.28923 0.622615,3.19725 0.147215,0.19409 5.600384,5.66757 16.773415,16.83591 14.538324,14.53221 16.590778,16.57156 16.846617,16.73901 0.76181,0.49861 1.637318,0.7072 2.499914,0.59562 z m 4.584412,-16.28873 c 0.71396,-0.11621 1.37155,-0.44351 1.9082,-0.94976 1.35413,-1.27741 1.53424,-3.38413 0.41647,-4.87142 -0.13122,-0.17461 -3.977332,-4.04121 -10.906178,-10.96428 -9.618432,-9.61041 -10.73253,-10.71284 -10.990146,-10.87499 -0.572528,-0.36036 -1.137162,-0.53611 -1.814533,-0.5648 -0.713292,-0.0302 -1.241228,0.079 -1.843934,0.38145 -0.928981,0.46616 -1.61296,1.31241 -1.893772,2.34307 -0.09116,0.33457 -0.126155,1.14559 -0.06571,1.52287 0.08989,0.56112 0.343109,1.16066 0.684189,1.61996 0.09517,0.12815 4.899568,4.95855 10.849449,10.90815 11.323198,11.32267 10.828411,10.84029 11.42297,11.1365 0.234746,0.11695 0.675281,0.25865 0.970285,0.3121 0.33552,0.0608 0.8932,0.0613 1.26271,0.001 z m 20.6299,-20.67244 c 1.02505,-0.15451 1.94255,-0.74646 2.51269,-1.62114 0.43476,-0.66697 0.6229,-1.38259 0.58157,-2.21205 -0.0438,-0.87832 -0.35245,-1.60646 -0.97628,-2.30293 -0.51559,-0.57561 -21.18219,-21.20301 -21.42156,-21.38093 -0.45885,-0.34104 -1.05863,-0.59441 -1.61996,-0.68434 -0.37728,-0.0604 -1.188298,-0.0254 -1.522873,0.0657 -1.030653,0.28081 -1.876905,0.96479 -2.343067,1.89377 -0.302438,0.6027 -0.411649,1.13064 -0.381446,1.84393 0.02868,0.67737 0.204432,1.24201 0.564798,1.81454 0.162151,0.25761 1.264576,1.37171 10.874988,10.99014 6.92307,6.92885 10.78967,10.77496 10.96428,10.90618 0.79247,0.59558 1.76759,0.83774 2.76686,0.68711 z m 16.59129,-4.47853 c 0.60655,-0.15379 1.17571,-0.46772 1.62971,-0.89888 0.34075,-0.32361 0.5533,-0.6146 0.76808,-1.05153 0.31357,-0.63788 0.43349,-1.29757 0.35964,-1.97839 -0.0699,-0.64451 -0.25134,-1.15409 -0.60129,-1.68878 -0.16745,-0.25584 -2.2068,-2.30829 -16.73901,-16.84661 -11.16834,-11.17303 -16.64182,-16.6262 -16.83591,-16.77342 -0.90802,-0.68872 -2.07001,-0.915 -3.19725,-0.62261 -0.34191,0.0887 -0.9477,0.38494 -1.23734,0.60511 -0.65971,0.50148 -1.15522,1.24949 -1.35525,2.04583 -0.089,0.35439 -0.12072,1.06389 -0.0647,1.44726 0.0789,0.5393 0.31095,1.11813 0.63569,1.5854 0.18342,0.26391 33.03705,33.14596 33.4527,33.48163 0.4409,0.35606 1.04937,0.63554 1.61839,0.74333 0.35918,0.068 1.21121,0.0417 1.56651,-0.0483 z"
         id="path8" /></g></g></svg>
